<mxfile host="app.diagrams.net" agent="Mozilla/5.0 (Macintosh; Intel Mac OS X 10_15_7) AppleWebKit/605.1.15 (KHTML, like Gecko) Version/18.0.1 Safari/605.1.15" version="24.7.17">
  <diagram name="Page-1" id="RLWBDrWyhWVHP3c7FfHK">
    <mxGraphModel dx="1242" dy="855" grid="1" gridSize="10" guides="1" tooltips="1" connect="1" arrows="1" fold="1" page="1" pageScale="1" pageWidth="850" pageHeight="1100" math="0" shadow="0">
      <root>
        <mxCell id="0" />
        <mxCell id="1" parent="0" />
        <mxCell id="wZRpSqvPo0wCLBizJin9-8" style="edgeStyle=orthogonalEdgeStyle;rounded=0;orthogonalLoop=1;jettySize=auto;html=1;exitX=0.5;exitY=1;exitDx=0;exitDy=0;exitPerimeter=0;entryX=0.5;entryY=0;entryDx=0;entryDy=0;" edge="1" parent="1" source="wZRpSqvPo0wCLBizJin9-1" target="wZRpSqvPo0wCLBizJin9-2">
          <mxGeometry relative="1" as="geometry" />
        </mxCell>
        <mxCell id="wZRpSqvPo0wCLBizJin9-1" value="Start" style="strokeWidth=2;html=1;shape=mxgraph.flowchart.start_1;whiteSpace=wrap;" vertex="1" parent="1">
          <mxGeometry x="350" y="40" width="100" height="60" as="geometry" />
        </mxCell>
        <mxCell id="wZRpSqvPo0wCLBizJin9-9" style="edgeStyle=orthogonalEdgeStyle;rounded=0;orthogonalLoop=1;jettySize=auto;html=1;exitX=0.5;exitY=1;exitDx=0;exitDy=0;entryX=0.5;entryY=0;entryDx=0;entryDy=0;" edge="1" parent="1" source="wZRpSqvPo0wCLBizJin9-2" target="wZRpSqvPo0wCLBizJin9-4">
          <mxGeometry relative="1" as="geometry" />
        </mxCell>
        <mxCell id="wZRpSqvPo0wCLBizJin9-2" value="Log in to manager/admin account." style="rounded=1;whiteSpace=wrap;html=1;absoluteArcSize=1;arcSize=14;strokeWidth=2;" vertex="1" parent="1">
          <mxGeometry x="325" y="130" width="150" height="40" as="geometry" />
        </mxCell>
        <mxCell id="wZRpSqvPo0wCLBizJin9-10" style="edgeStyle=orthogonalEdgeStyle;rounded=0;orthogonalLoop=1;jettySize=auto;html=1;exitX=0.5;exitY=1;exitDx=0;exitDy=0;" edge="1" parent="1" source="wZRpSqvPo0wCLBizJin9-4" target="wZRpSqvPo0wCLBizJin9-5">
          <mxGeometry relative="1" as="geometry" />
        </mxCell>
        <mxCell id="wZRpSqvPo0wCLBizJin9-4" value="Go to inventory management section" style="rounded=1;whiteSpace=wrap;html=1;absoluteArcSize=1;arcSize=14;strokeWidth=2;" vertex="1" parent="1">
          <mxGeometry x="325" y="200" width="150" height="40" as="geometry" />
        </mxCell>
        <mxCell id="wZRpSqvPo0wCLBizJin9-11" style="edgeStyle=orthogonalEdgeStyle;rounded=0;orthogonalLoop=1;jettySize=auto;html=1;exitX=0.5;exitY=1;exitDx=0;exitDy=0;entryX=0.5;entryY=0;entryDx=0;entryDy=0;" edge="1" parent="1" source="wZRpSqvPo0wCLBizJin9-5" target="wZRpSqvPo0wCLBizJin9-6">
          <mxGeometry relative="1" as="geometry" />
        </mxCell>
        <mxCell id="wZRpSqvPo0wCLBizJin9-5" value="Select the product to restock" style="rounded=1;whiteSpace=wrap;html=1;absoluteArcSize=1;arcSize=14;strokeWidth=2;" vertex="1" parent="1">
          <mxGeometry x="325" y="270" width="150" height="40" as="geometry" />
        </mxCell>
        <mxCell id="wZRpSqvPo0wCLBizJin9-12" style="edgeStyle=orthogonalEdgeStyle;rounded=0;orthogonalLoop=1;jettySize=auto;html=1;exitX=0.5;exitY=1;exitDx=0;exitDy=0;" edge="1" parent="1" source="wZRpSqvPo0wCLBizJin9-6" target="wZRpSqvPo0wCLBizJin9-7">
          <mxGeometry relative="1" as="geometry" />
        </mxCell>
        <mxCell id="wZRpSqvPo0wCLBizJin9-6" value="Update the quantity of available units." style="rounded=1;whiteSpace=wrap;html=1;absoluteArcSize=1;arcSize=14;strokeWidth=2;" vertex="1" parent="1">
          <mxGeometry x="325" y="350" width="150" height="40" as="geometry" />
        </mxCell>
        <mxCell id="wZRpSqvPo0wCLBizJin9-7" value="End&lt;div&gt;&lt;br&gt;&lt;/div&gt;" style="strokeWidth=2;html=1;shape=mxgraph.flowchart.terminator;whiteSpace=wrap;" vertex="1" parent="1">
          <mxGeometry x="350" y="440" width="100" height="60" as="geometry" />
        </mxCell>
      </root>
    </mxGraphModel>
  </diagram>
</mxfile>
